HIERARCHY
ROOT Hips
{
	OFFSET 0.00000 0.00000 0.00000
	CHANNELS 6 Xposition Yposition Zposition Zrotation Yrotation Xrotation 
	JOINT RightUpLegDummy
	{
		OFFSET 0 0 0
		CHANNELS 3 Zrotation Yrotation Xrotation
		JOINT RightUpLeg
		{
			OFFSET -3.52197 -3.41223 0.04002
			CHANNELS 3 Zrotation Yrotation Xrotation
			JOINT RightLeg
			{
				OFFSET 0.00006 -17.42390 1.60435
				CHANNELS 3 Zrotation Yrotation Xrotation
				JOINT RightFoot
				{
					OFFSET 0.06154 -16.50078 -1.63900
					CHANNELS 3 Zrotation Yrotation Xrotation
					JOINT RightToes
					{
						OFFSET 0.00298 -1.73825 3.34613
						CHANNELS 3 Zrotation Yrotation Xrotation
						End Site
						{
							OFFSET 0.00480 -0.05416 3.85043
						}
					}
				}
			}
		}
	}
	JOINT SpineDummy
	{
		OFFSET 0 0 0
		CHANNELS 3 Zrotation Yrotation Xrotation
		JOINT Spine
		{
			OFFSET 0.00000 4.68130 0.00000
			CHANNELS 3 Zrotation Yrotation Xrotation
			JOINT Spine1
			{
				OFFSET -0.00000 10.10138 0.05002
				CHANNELS 3 Zrotation Yrotation Xrotation
				JOINT HEadDummy
				{
					OFFSET 0 0 0
					CHANNELS 3 Zrotation Yrotation Xrotation
					JOINT Head
					{
						OFFSET -0.00000 3.43865 0.00438
						CHANNELS 3 Zrotation Yrotation Xrotation
						End Site
						{
							OFFSET -0.11417 5.02924 0.98962
						}
					}
				}
				JOINT LeftShoulder1Dummy
				{
					OFFSET 0 0 0
					CHANNELS 3 Zrotation Yrotation Xrotation
					JOINT LeftShoulder1
					{
						OFFSET 3.53937 -0.14262 -0.08662
						CHANNELS 3 Zrotation Yrotation Xrotation
						JOINT LeftArm
						{
							OFFSET 4.04833 -0.00133 0.12681
							CHANNELS 3 Zrotation Yrotation Xrotation
							JOINT LeftForeArm
							{
								OFFSET 10.33880 -0.01036 -0.55515
								CHANNELS 3 Zrotation Yrotation Xrotation
								JOINT LeftHand
								{
									OFFSET 8.69677 0.07543 0.40060
									CHANNELS 3 Zrotation Yrotation Xrotation
									End Site
									{
										OFFSET 5.28377 -0.21905 0.59205
									}
								}
							}
						}
					}
				}
				JOINT RightShoulderDummy
				{
					OFFSET 0 0 0
					CHANNELS 3 Zrotation Yrotation Xrotation
					JOINT RightShoulder
					{
						OFFSET -3.53937 -0.14262 -0.08660
						CHANNELS 3 Zrotation Yrotation Xrotation
						JOINT RightArm
						{
							OFFSET -4.04833 -0.00133 0.12683
							CHANNELS 3 Zrotation Yrotation Xrotation
							JOINT RightForeArm
							{
								OFFSET -10.37987 -0.01039 -0.55511
								CHANNELS 3 Zrotation Yrotation Xrotation
								JOINT RightHand
								{
									OFFSET -8.67398 0.07538 0.40058
									CHANNELS 3 Zrotation Yrotation Xrotation
									End Site
									{
										OFFSET -5.24810 -0.21916 0.59204
									}
								}
							}
						}
					}
				}
			}
		}
	}
	JOINT LeftUpLegDummy
	{
		OFFSET 0 0 0
		CHANNELS 3 Zrotation Yrotation Xrotation
		JOINT LeftUpLeg
		{
			OFFSET 3.52197 -3.41223 0.04002
			CHANNELS 3 Zrotation Yrotation Xrotation
			JOINT LeftLeg
			{
				OFFSET -0.00012 -17.42399 1.60337
				CHANNELS 3 Zrotation Yrotation Xrotation
				JOINT LeftFoot
				{
					OFFSET -0.09972 -16.50070 -1.63802
					CHANNELS 3 Zrotation Yrotation Xrotation
					JOINT LeftToes
					{
						OFFSET -0.01575 -1.73823 3.34611
						CHANNELS 3 Zrotation Yrotation Xrotation
						End Site
						{
							OFFSET 0.03150 -0.01868 3.85031
						}
					}
				}
			}
		}
	}
}
MOTION
Frames: 14
Frame Time: 0.033333
-80.2487 39.5714 -2.3357 27.0662 83.9338 27.9839 0.0000 0.0000 0.0000 -3.6839 -1.9096 16.2462 -1.5678 -1.4749 17.2042 15.1959 -0.3734 -8.6943 0.0000 0.0000 -0.0000 0.0000 0.0000 0.0000 0.9495 2.6099 -11.8902 -3.1630 4.2201 22.7035 0.0000 0.0000 0.0000 1.8835 -0.7706 -8.3061 0.0000 0.0000 0.0000 -18.3207 -3.7760 1.8122 -60.1540 3.2344 -23.0543 -11.6886 5.0060 51.6490 11.2323 -1.9299 -0.6910 0.0000 0.0000 0.0000 21.4594 0.4126 1.0905 52.8149 28.4044 32.2722 0.9113 24.3163 -8.0599 -8.0748 1.5887 -0.4713 0.0000 0.0000 0.0000 -3.0762 -3.2850 -18.5609 -2.2483 13.7432 -3.2043 -0.0492 -0.0683 12.7617 -0.0000 -0.0000 -0.0000
-78.7495 39.5954 -2.2534 47.1037 83.4460 48.2014 0.0000 0.0000 0.0000 -5.4229 -1.0635 14.7348 -2.7222 -4.3484 23.0687 17.6191 -1.4293 -2.3688 0.0000 0.0000 -0.0000 0.0000 0.0000 0.0000 -2.8978 2.0829 -12.5534 -2.8226 3.7481 22.9949 0.0000 0.0000 0.0000 2.0749 -0.2548 -7.7513 0.0000 0.0000 0.0000 -18.2333 -3.5153 1.7417 -59.7330 2.6295 -23.9536 -10.9065 4.9636 53.3015 10.9488 -2.0182 -0.6806 0.0000 0.0000 0.0000 21.2812 0.2604 1.0421 54.0389 26.0803 29.4630 2.0159 22.4539 -4.7123 -8.1221 1.9751 -0.4981 0.0000 0.0000 0.0000 -5.2333 -4.1701 -18.2644 -2.2194 11.9332 0.1506 1.1664 -0.3329 12.7621 -0.0000 -0.0000 -0.0000
-77.1445 39.5067 -2.1652 64.3298 81.9678 65.1576 0.0000 0.0000 0.0000 -7.7131 -0.7991 10.3032 -5.5105 -6.2907 34.3894 17.6422 -3.1708 9.1430 0.0000 0.0000 -0.0000 0.0000 0.0000 0.0000 -7.0415 1.5443 -12.1612 -2.9759 3.2816 23.4913 0.0000 0.0000 0.0000 2.1922 -1.0702 -7.5680 0.0000 0.0000 0.0000 -18.1458 -3.6370 1.7660 -59.2256 0.9293 -24.4045 -10.3507 4.9952 52.5374 10.6091 -1.7321 -0.6351 0.0000 0.0000 0.0000 20.9082 0.4088 1.0697 55.5492 23.4657 24.0077 3.8834 20.4930 0.1925 -7.9584 2.0271 -0.4908 0.0000 0.0000 0.0000 -7.8987 -4.8282 -17.9871 -2.1153 10.8361 5.2480 3.4381 -0.6865 9.6197 -0.0000 -0.0000 -0.0000
-75.7181 39.3620 -2.1161 71.7111 80.4205 71.8170 0.0000 0.0000 0.0000 -9.5448 -0.0319 4.3904 -8.6661 -6.5390 46.6533 16.2549 -4.5198 20.1257 0.0000 0.0000 -0.0000 0.0000 0.0000 0.0000 -9.8234 1.0175 -10.9415 -3.6612 2.7013 24.1882 0.0000 0.0000 0.0000 1.4595 -0.8726 -8.0233 0.0000 0.0000 0.0000 -18.7998 -3.7256 1.8321 -58.3095 -1.3626 -23.9518 -10.5020 5.0930 49.2683 10.5054 -1.5239 -0.6108 0.0000 0.0000 0.0000 19.8936 1.1073 1.2153 57.2338 21.4327 18.5165 5.9270 18.5348 5.3515 -7.5838 1.7854 -0.4531 0.0000 0.0000 0.0000 -10.2328 -5.0886 -17.0973 -1.4804 11.1293 9.7159 4.3318 -0.6744 5.4482 -0.0000 -0.0000 -0.0000
-74.2497 39.3753 -2.1113 74.4614 79.7972 73.9507 0.0000 0.0000 0.0000 -10.3382 0.6307 -1.7556 -11.8943 -6.1690 56.5643 14.3066 -4.4262 23.6337 0.0000 0.0000 -0.0000 0.0000 0.0000 0.0000 -11.0235 0.3201 -9.8758 -4.2884 1.8653 24.3125 0.0000 0.0000 0.0000 0.2769 1.4174 -8.4758 0.0000 0.0000 0.0000 -19.8152 -3.3883 1.8112 -57.1593 -4.1026 -22.9729 -10.9894 5.1836 45.8824 11.4345 -1.8250 -0.6936 0.0000 0.0000 0.0000 19.1125 1.7645 1.3507 58.2032 19.6463 15.4526 7.6694 16.7914 9.9960 -7.4915 1.9046 -0.4540 0.0000 0.0000 0.0000 -11.7315 -5.1435 -15.1188 -0.7823 10.9665 12.0513 4.5860 -0.5662 2.3227 -0.0000 -0.0000 -0.0000
-72.6860 39.5579 -2.1201 77.9667 80.2983 77.1078 0.0000 0.0000 0.0000 -9.9850 0.4478 -7.6392 -15.3422 -5.9364 63.0574 11.4112 -3.1494 20.0411 0.0000 0.0000 -0.0000 0.0000 0.0000 0.0000 -11.2811 -0.5612 -9.5718 -4.0428 0.7284 24.2125 0.0000 0.0000 0.0000 -0.5230 3.8869 -8.5147 0.0000 0.0000 0.0000 -20.3599 -2.7622 1.6788 -56.3967 -7.9774 -21.7722 -11.3694 5.2415 43.5348 13.8233 -2.2029 -0.8870 0.0000 0.0000 0.0000 18.9273 1.9386 1.3861 58.3254 17.6503 15.6503 8.4699 16.0897 12.0857 -7.5242 2.2561 -0.4760 0.0000 0.0000 0.0000 -12.2499 -4.9969 -12.2763 -0.4252 9.7923 12.6606 5.8651 -0.5754 -0.0960 -0.0000 -0.0000 -0.0000
-71.1162 39.7241 -2.1090 85.0489 81.2758 83.7763 0.0000 0.0000 0.0000 -9.2091 -0.1005 -12.8499 -17.3040 -5.7659 65.9746 8.9060 -2.0524 15.2136 0.0000 0.0000 -0.0000 0.0000 0.0000 0.0000 -11.4909 -1.4091 -9.1019 -3.1376 -0.5929 24.0297 0.0000 0.0000 0.0000 -0.7163 4.5801 -8.0626 0.0000 0.0000 0.0000 -20.2400 -2.0627 1.4858 -56.1758 -12.7650 -20.2389 -11.6774 5.3141 42.0449 16.6385 -2.3729 -1.0969 0.0000 0.0000 0.0000 19.0635 1.6582 1.3212 58.2065 15.1434 17.3511 8.2495 16.4841 11.2149 -7.1685 2.2606 -0.4528 0.0000 0.0000 0.0000 -12.2094 -4.5600 -9.2514 -0.1504 8.3695 13.1695 6.8027 -0.4881 -2.8259 -0.0000 -0.0000 -0.0000
-69.5463 39.8118 -2.0836 94.6591 82.1341 92.7522 0.0000 0.0000 0.0000 -8.5242 -0.3095 -17.1681 -16.6589 -5.6873 65.5188 7.4401 -1.5183 12.3994 0.0000 0.0000 -0.0000 0.0000 0.0000 0.0000 -11.6115 -2.1966 -8.2707 -2.3738 -1.8405 23.7944 0.0000 0.0000 0.0000 -0.6998 4.0267 -7.4685 0.0000 0.0000 0.0000 -19.8416 -1.6606 1.3593 -56.0751 -17.1635 -18.1912 -12.2669 5.1613 39.6930 17.8067 -2.2563 -1.1576 0.0000 0.0000 0.0000 19.1724 1.3771 1.2543 58.3512 12.3710 17.2682 7.9320 16.8260 10.2595 -6.8219 1.8732 -0.4104 0.0000 0.0000 0.0000 -11.9277 -3.8828 -6.1816 0.0511 6.8400 13.9565 6.4928 -0.2904 -5.6717 -0.0000 -0.0000 -0.0000
-67.9603 39.8867 -2.0617 104.0190 82.8409 101.6180 0.0000 0.0000 0.0000 -7.8960 -0.2268 -20.7128 -14.5775 -5.9745 61.9291 7.0473 -1.2471 9.2025 0.0000 0.0000 -0.0000 0.0000 0.0000 0.0000 -11.3504 -2.9258 -7.8542 -1.7555 -2.8646 23.6179 0.0000 0.0000 0.0000 -0.7539 3.7374 -7.0747 0.0000 0.0000 0.0000 -19.7995 -2.0025 1.4465 -55.3000 -20.4699 -16.1744 -13.0904 2.0015 36.6140 17.0882 -2.1467 -1.0949 0.0000 0.0000 0.0000 19.1254 1.3539 1.2462 58.7098 9.6001 14.5806 8.1351 16.4752 11.0483 -7.1341 1.4805 -0.4087 0.0000 0.0000 0.0000 -11.3606 -3.1373 -2.9448 -0.0051 5.1369 14.0647 6.5948 -0.1497 -7.9222 -0.0000 -0.0000 -0.0000
-66.3868 39.9331 -2.0301 112.5820 83.4344 110.1600 0.0000 0.0000 0.0000 -7.4228 -0.3906 -23.5840 -12.3768 -6.7805 55.3608 8.0418 -1.1271 4.9168 0.0000 0.0000 -0.0000 0.0000 0.0000 0.0000 -10.9515 -3.4813 -8.1242 -0.8821 -3.6509 23.4864 0.0000 0.0000 0.0000 -0.8331 4.0092 -6.8728 0.0000 0.0000 0.0000 -20.3476 -2.9448 1.7277 -53.7296 -23.3894 -13.0464 -13.7783 -2.1311 31.7626 16.1089 -2.2025 -1.0373 0.0000 0.0000 0.0000 19.0222 1.4169 1.2577 58.9747 6.8309 10.8392 8.5908 15.7597 12.8659 -7.7227 1.3555 -0.4365 0.0000 0.0000 0.0000 -10.5389 -2.4343 0.0557 -0.1349 3.6674 13.5383 7.5848 -0.0352 -9.8851 -0.0000 -0.0000 -0.0000
-64.8267 39.8838 -1.9729 120.6860 83.8016 118.6610 0.0000 0.0000 0.0000 -7.2230 -0.9717 -25.5526 -10.4478 -8.1654 46.0000 9.4006 -1.1522 2.7218 0.0000 0.0000 -0.0000 0.0000 0.0000 0.0000 -10.5924 -3.9250 -8.9092 -0.0625 -4.2228 23.5374 0.0000 0.0000 0.0000 -0.7936 4.1698 -6.8487 0.0000 0.0000 0.0000 -20.8750 -3.7115 1.9679 -52.2376 -26.6449 -7.8695 -13.8241 -5.9416 25.2571 15.9756 -2.4351 -1.0589 0.0000 0.0000 0.0000 18.9676 1.4449 1.2623 59.1201 4.2640 6.8227 9.1152 14.8536 15.4853 -7.7438 1.5918 -0.4515 0.0000 0.0000 0.0000 -9.6574 -1.7764 2.4360 -0.1638 2.6204 13.2395 7.9847 0.1311 -12.1646 -0.0000 -0.0000 -0.0000
-63.2768 39.8077 -1.9123 128.4620 84.0183 127.0590 0.0000 0.0000 0.0000 -7.0801 -1.5059 -26.2217 -8.3513 -10.0370 33.7691 9.0424 -1.1794 3.6661 0.0000 0.0000 -0.0000 0.0000 0.0000 0.0000 -9.9339 -4.4573 -10.0886 0.3300 -4.7006 23.9882 0.0000 0.0000 0.0000 -0.7907 4.0658 -7.1864 0.0000 0.0000 0.0000 -20.7151 -3.8664 1.9988 -51.6224 -29.7680 -0.4679 -12.7633 -10.1431 17.3435 16.1837 -2.7088 -1.1096 0.0000 0.0000 0.0000 18.9547 1.5504 1.2886 59.3109 2.2203 2.3750 9.8032 13.5289 19.3725 -7.1789 1.9669 -0.4375 0.0000 0.0000 0.0000 -8.7294 -1.2357 4.6813 -0.2360 1.6824 12.6159 7.5391 0.2656 -14.0979 -0.0000 -0.0000 -0.0000
-61.7748 39.7906 -1.8633 135.8990 84.0865 135.2350 0.0000 0.0000 0.0000 -6.9880 -1.7579 -25.4766 -5.3301 -11.5020 18.8855 7.5073 -1.0675 5.1069 0.0000 0.0000 -0.0000 0.0000 0.0000 0.0000 -9.1560 -5.0524 -11.2098 0.7959 -5.2987 24.5408 0.0000 0.0000 0.0000 -0.9869 3.8935 -7.9730 0.0000 0.0000 0.0000 -20.0859 -3.7356 1.9211 -51.7599 -31.9109 9.8396 -9.7397 -15.2157 6.6635 16.1453 -2.8654 -1.1275 0.0000 0.0000 0.0000 18.9789 1.6853 1.3241 59.4929 0.6367 -1.9559 10.5494 11.8588 23.8234 -6.6252 2.0768 -0.4080 0.0000 0.0000 0.0000 -7.7557 -0.8705 7.3103 -0.4783 0.6584 10.7398 7.0933 0.3114 -14.9088 -0.0000 -0.0000 -0.0000
-60.2672 39.7200 -1.7966 140.9760 83.8986 141.0050 0.0000 0.0000 0.0000 -6.0543 -4.1423 -24.1335 -2.2777 -9.2669 4.6166 8.3088 -1.1079 3.9194 0.0000 0.0000 -0.0000 0.0000 0.0000 0.0000 -9.0137 -5.4634 -11.6641 1.8649 -6.0586 24.5769 0.0000 0.0000 0.0000 -1.2841 3.7306 -9.0055 0.0000 0.0000 0.0000 -19.6181 -3.7067 1.8818 -51.9560 -33.1343 19.7384 -5.6243 -19.5234 -4.0029 16.1233 -2.9000 -1.1306 0.0000 0.0000 0.0000 19.0316 1.5782 1.2993 59.5139 -0.7005 -5.8443 11.1595 10.0739 28.1963 -6.3292 2.0292 -0.3867 0.0000 0.0000 0.0000 -6.9101 -0.5381 9.8399 -0.7909 -0.3135 9.1035 6.3268 0.3215 -15.4647 -0.0000 -0.0000 -0.0000
